#!OML:ASF F:\VICON\USERDATA\INSTALL\rory3\rory3.ASF
:FULLY-SPECIFIED
:DEGREES
5362
root -3.44671 18.7682 2.75548 0.241371 -22.8924 3.214
lowerback 4.38805 -0.301737 0.611041
upperback 1.85695 -0.376697 0.860967
thorax -0.552179 -0.191615 0.557724
lowerneck -5.03624 -6.21475 -7.27642
upperneck 5.34053 -8.59236 11.518
head 3.23105 -4.03578 4.26265
rclavicle -8.84592e-015 3.18055e-015
rhumerus 47.692 -32.2397 -76.0035
rradius 57.8354
rwrist -12.26
rhand -57.2543 360.928
rfingers 7.12502
rthumb -29.5343 -26.7426
lclavicle -8.84592e-015 3.18055e-015
lhumerus -19.6583 -12.1231 72.7434
lradius 37.6795
lwrist -8.42777
lhand -31.1482 17.3259
lfingers 7.12502
lthumb -4.42628 47.2596
rfemur -10.3803 19.2701 16.3743
rtibia 28.3383
rfoot -17.3849 -12.959
rtoes -1.36957
lfemur -4.34159 -0.113973 -7.59713
ltibia 30.9098
lfoot -0.0430203 17.2819
ltoes -17.3562
5363
root -3.40902 18.7735 2.7577 0.174985 -23.034 3.41432
lowerback 4.34353 -0.2656 0.479548
upperback 1.86126 -0.334153 0.89406
thorax -0.522217 -0.171031 0.663085
lowerneck -5.04685 -6.16491 -7.22233
upperneck 5.65455 -8.52981 11.2049
head 3.30351 -4.00758 4.15896
rclavicle -1.49089e-014 -3.18055e-015
rhumerus 46.3757 -32.7203 -76.5827
rradius 57.7813
rwrist -14.2283
rhand -57.3506 359.509
rfingers 7.12502
rthumb -29.6262 -28.145
lclavicle -1.49089e-014 -3.18055e-015
lhumerus -19.8964 -12.0999 72.8832
lradius 37.7444
lwrist -8.74463
lhand -31.1993 17.4016
lfingers 7.12502
lthumb -4.47562 47.3343
rfemur -10.4455 19.5259 16.0301
rtibia 28.3229
rfoot -17.3406 -13.0557
rtoes -1.62259
lfemur -4.13297 -0.0204838 -7.95178
ltibia 30.5634
lfoot -0.167729 17.238
ltoes -18.661
5364
root -3.37021 18.7796 2.75927 0.117801 -23.204 3.73303
lowerback 4.30914 -0.242183 0.286722
upperback 1.7795 -0.310047 0.855286
thorax -0.586289 -0.159363 0.730411
lowerneck -4.84561 -6.06154 -7.12538
upperneck 5.87884 -8.40493 10.9448
head 3.30914 -3.9548 4.07582
rclavicle -1.76918e-014 3.10104e-014
rhumerus 45.053 -33.2722 -77.3275
rradius 57.6438
rwrist -15.9636
rhand -57.3084 358.434
rfingers 7.12502
rthumb -29.5859 -29.2277
lclavicle -1.76918e-014 3.10104e-014
lhumerus -20.2659 -12.0473 72.9515
lradius 37.7469
lwrist -9.12212
lhand -31.2614 17.1625
lfingers 7.12502
lthumb -4.53558 47.0939
rfemur -10.6036 19.7724 15.5198
rtibia 28.3385
rfoot -17.3397 -13.0809
rtoes -1.74967
lfemur -3.96262 -0.0329153 -8.45896
ltibia 30.1924
lfoot -0.655993 17.3664
ltoes -19.2312
5365
root -3.33096 18.7836 2.76137 0.042794 -23.3297 4.01468
lowerback 4.3085 -0.239172 0.138423
upperback 1.71117 -0.311217 0.838531
thorax -0.65529 -0.160107 0.796682
lowerneck -4.68958 -5.9647 -7.11565
upperneck 6.12703 -8.28778 10.7597
head 3.33758 -3.90342 4.02751
rclavicle -4.9895e-014 1.43125e-014
rhumerus 43.7977 -33.8405 -78.0877
rradius 57.3824
rwrist -17.6261
rhand -57.3448 358.259
rfingers 7.12502
rthumb -29.6207 -29.3966
lclavicle -4.9895e-014 1.43125e-014
lhumerus -20.6325 -12.1203 73.0515
lradius 37.6975
lwrist -9.3354
lhand -31.2838 16.8349
lfingers 7.12502
lthumb -4.5572 46.7659
rfemur -10.6991 19.9928 15.0712
rtibia 28.356
rfoot -17.4592 -13.1494
rtoes -1.88321
lfemur -3.79003 -0.0137285 -8.92813
ltibia 29.8307
lfoot -0.717308 17.5354
ltoes -19.4269
5366
root -3.29201 18.7867 2.75975 0.036178 -23.4207 4.09082
lowerback 4.3473 -0.248082 0.141398
upperback 1.64015 -0.321237 0.909682
thorax -0.74922 -0.164969 0.868913
lowerneck -4.52731 -5.85172 -7.173
upperneck 6.36017 -8.14272 10.5793
head 3.36116 -3.84026 3.99343
rclavicle 2.29596e-014 1.82882e-014
rhumerus 42.44 -34.291 -78.5908
rradius 57.0335
rwrist -19.234
rhand -57.6176 358.089
rfingers 7.12502
rthumb -29.881 -29.5195
lclavicle 2.29596e-014 1.82882e-014
lhumerus -20.9657 -12.1143 73.2168
lradius 37.5153
lwrist -9.67399
lhand -31.3204 16.7893
lfingers 7.12502
lthumb -4.59252 46.7195
rfemur -10.7674 20.2176 14.8576
rtibia 28.3361
rfoot -17.4659 -13.278
rtoes -1.83358
lfemur -3.6485 0.130555 -9.14346
ltibia 29.5161
lfoot -0.422753 17.5903
ltoes -18.9893
5367
root -3.25381 18.7903 2.75829 0.0409549 -23.5248 4.18273
lowerback 4.35411 -0.247773 0.135878
upperback 1.59799 -0.320252 0.934749
thorax -0.796089 -0.164349 0.897856
lowerneck -4.39884 -5.74131 -7.08081
upperneck 6.46564 -7.99555 10.3525
head 3.34458 -3.77542 3.92109
rclavicle -4.83047e-014 6.36111e-015
rhumerus 41.1096 -34.7795 -79.1682
rradius 56.6514
rwrist -20.6491
rhand -58.2024 357.819
rfingers 7.12502
rthumb -30.4389 -29.6877
lclavicle -4.83047e-014 6.36111e-015
lhumerus -21.1722 -12.0837 73.2736
lradius 37.2746
lwrist -9.98721
lhand -31.443 16.8569
lfingers 7.12502
lthumb -4.71091 46.7845
rfemur -10.8498 20.45 14.6136
rtibia 28.2701
rfoot -17.4033 -13.3997
rtoes -1.7803
lfemur -3.53213 0.198853 -9.38011
ltibia 29.2358
lfoot -0.479573 17.7256
ltoes -18.2956
5368
root -3.21479 18.7975 2.75763 0.0822917 -23.6659 4.18876
lowerback 4.31977 -0.232878 0.249592
upperback 1.61319 -0.296214 0.938005
thorax -0.762244 -0.152216 0.83598
lowerneck -4.46272 -5.67079 -6.90189
upperneck 6.6085 -7.90254 10.1367
head 3.37368 -3.72864 3.82893
rclavicle -3.11098e-014 -1.27222e-014
rhumerus 39.8614 -35.3414 -79.7849
rradius 56.2358
rwrist -21.8571
rhand -58.3702 356.888
rfingers 7.12502
rthumb -30.599 -30.5889
lclavicle -3.11098e-014 -1.27222e-014
lhumerus -21.2235 -12.1154 73.2246
lradius 36.9792
lwrist -10.102
lhand -31.4429 16.8005
lfingers 7.12502
lthumb -4.7108 46.7281
rfemur -10.9215 20.7191 14.4464
rtibia 28.1614
rfoot -17.361 -13.4906
rtoes -1.71528
lfemur -3.42097 0.189181 -9.55285
ltibia 28.9744
lfoot -0.718648 17.9968
ltoes -17.715
5369
root -3.17652 18.8065 2.75912 0.0972473 -23.8541 4.23221
lowerback 4.30521 -0.230239 0.214217
upperback 1.59081 -0.293012 1.04592
thorax -0.776344 -0.150929 0.966347
lowerneck -4.47186 -5.56429 -7.02204
upperneck 6.82564 -7.75699 10.0335
head 3.42766 -3.65977 3.82367
rclavicle 5.86415e-015 -7.95139e-016
rhumerus 38.4878 -35.6865 -80.0801
rradius 55.7654
rwrist -22.8168
rhand -58.0147 355.135
rfingers 7.12502
rthumb -30.2598 -32.4049
lclavicle 5.86415e-015 -7.95139e-016
lhumerus -21.4376 -11.9139 73.3419
lradius 36.6355
lwrist -10.2632
lhand -31.6361 16.7905
lfingers 7.12502
lthumb -4.89734 46.7139
rfemur -10.9629 21.0519 14.2479
rtibia 28.0093
rfoot -17.2859 -13.6495
rtoes -1.80814
lfemur -3.28142 0.286382 -9.76664
ltibia 28.7059
lfoot -0.801255 18.2191
ltoes -17.6363
5370
root -3.13686 18.8134 2.76151 0.0913243 -23.9897 4.35717
lowerback 4.29688 -0.225004 0.161794
upperback 1.56242 -0.287327 1.10415
thorax -0.800313 -0.148219 1.05526
lowerneck -4.45479 -5.49597 -7.07332
upperneck 6.9993 -7.66236 9.89256
head 3.46472 -3.61741 3.79371
rclavicle 3.97569e-016 1.90833e-014
rhumerus 36.9717 -36.0359 -80.197
rradius 55.2675
rwrist -23.5949
rhand -57.727 354.159
rfingers 7.12502
rthumb -29.9854 -33.4309
lclavicle 3.97569e-016 1.90833e-014
lhumerus -21.663 -11.7243 73.4503
lradius 36.284
lwrist -10.4878
lhand -31.7997 16.7588
lfingers 7.12502
lthumb -5.0553 46.6785
rfemur -10.9925 21.2418 13.953
rtibia 27.8288
rfoot -17.1749 -13.7487
rtoes -1.40839
lfemur -3.15762 0.377128 -10.0564
ltibia 28.4232
lfoot -0.993052 18.368
ltoes -17.7241
5371
root -3.09614 18.819 2.76167 0.105939 -24.0546 4.4026
lowerback 4.28321 -0.227893 0.263751
upperback 1.5923 -0.287662 1.10032
thorax -0.762561 -0.148357 0.993976
lowerneck -4.49815 -5.45593 -6.92361
upperneck 7.11417 -7.60673 9.6817
head 3.48759 -3.59103 3.70629
rclavicle -8.50798e-014 -3.18055e-015
rhumerus 35.4869 -36.4159 -80.4074
rradius 54.7143
rwrist -24.2081
rhand -57.8291 353.506
rfingers 7.12502
rthumb -30.0828 -34.0663
lclavicle -8.50798e-014 -3.18055e-015
lhumerus -21.689 -11.5619 73.4241
lradius 35.8766
lwrist -10.6619
lhand -31.7337 16.7446
lfingers 7.12502
lthumb -4.99164 46.6658
rfemur -10.9932 21.3964 13.7475
rtibia 27.6302
rfoot -17.0546 -13.8667
rtoes -1.19133
lfemur -3.04552 0.436837 -10.2625
ltibia 28.13
lfoot -1.16181 18.477
ltoes -17.753
5372
root -3.05496 18.8244 2.76271 0.0866126 -24.1759 4.47504
lowerback 4.2001 -0.229501 0.298478
upperback 1.66715 -0.290264 1.11287
thorax -0.639489 -0.150021 0.986792
lowerneck -4.52131 -5.38102 -6.74583
upperneck 7.17831 -7.49678 9.40177
head 3.48391 -3.54104 3.59747
rclavicle -3.67752e-015 -1.82882e-014
rhumerus 33.9883 -36.6418 -80.5267
rradius 54.1135
rwrist -24.6813
rhand -58.2126 352.965
rfingers 7.12502
rthumb -30.4487 -34.5403
lclavicle -3.67752e-015 -1.82882e-014
lhumerus -21.6406 -11.3581 73.385
lradius 35.3575
lwrist -10.6563
lhand -31.6993 16.2831
lfingers 7.12502
lthumb -4.95837 46.2051
rfemur -10.9701 21.6014 13.5156
rtibia 27.4107
rfoot -16.9125 -13.9832
rtoes -2.02364
lfemur -2.90606 0.499261 -10.5221
ltibia 27.8367
lfoot -1.20234 18.6495
ltoes -18.1767
